<?xml version="1.0" encoding="UTF-8" standalone="no"?>
<!-- Created with Inkscape (http://www.inkscape.org/) -->

<svg
   xmlns:dc="http://purl.org/dc/elements/1.1/"
   xmlns:cc="http://creativecommons.org/ns#"
   xmlns:rdf="http://www.w3.org/1999/02/22-rdf-syntax-ns#"
   xmlns:svg="http://www.w3.org/2000/svg"
   xmlns="http://www.w3.org/2000/svg"
   xmlns:sodipodi="http://sodipodi.sourceforge.net/DTD/sodipodi-0.dtd"
   xmlns:inkscape="http://www.inkscape.org/namespaces/inkscape"
   width="210mm"
   height="297mm"
   id="svg2"
   version="1.1"
   inkscape:version="0.48.4 r9939"
   inkscape:export-filename="C:\Users\MED\Desktop\tweet.png"
   inkscape:export-xdpi="5.2427387"
   inkscape:export-ydpi="5.2427387"
   sodipodi:docname="Nouveau document 1">
  <defs
     id="defs4" />
  <sodipodi:namedview
     id="base"
     pagecolor="#ffffff"
     bordercolor="#666666"
     borderopacity="1.0"
     inkscape:pageopacity="0.0"
     inkscape:pageshadow="2"
     inkscape:zoom="0.73691406"
     inkscape:cx="375"
     inkscape:cy="556.95197"
     inkscape:document-units="px"
     inkscape:current-layer="layer1"
     showgrid="false"
     inkscape:window-width="1366"
     inkscape:window-height="706"
     inkscape:window-x="-8"
     inkscape:window-y="-8"
     inkscape:window-maximized="1" />
  <metadata
     id="metadata7">
    <rdf:RDF>
      <cc:Work
         rdf:about="">
        <dc:format>image/svg+xml</dc:format>
        <dc:type
           rdf:resource="http://purl.org/dc/dcmitype/StillImage" />
        <dc:title></dc:title>
      </cc:Work>
    </rdf:RDF>
  </metadata>
  <g
     inkscape:label="Calque 1"
     inkscape:groupmode="layer"
     id="layer1">
    <path
       id="path3001"
       style="fill:#999999;fill-rule:evenodd"
       d="m 199.4691,609.57302 h 27.03022 V 544.1538 h 18.03217 l 2.38879,-22.54122 h -20.42096 l 0.0281,-11.28664 c 0,-5.87578 0.56113,-9.03011 8.99405,-9.03011 h 11.2706 v -22.54522 h -18.03618 c -21.66345,0 -29.28674,10.93794 -29.28674,29.32682 v 13.53515 h -13.50309 v 22.54522 h 13.50309 v 65.41522 z m 16.97405,54.82998 c -66.4052,0 -120.241186,-53.83198 -120.241186,-120.24119 0,-66.40921 53.835986,-120.24118 120.241186,-120.24118 66.4052,0 120.24118,53.83197 120.24118,120.24118 0,66.40921 -53.83598,120.24119 -120.24118,120.24119 z"
       inkscape:connector-curvature="0"
       inkscape:export-filename="C:\Users\MED\Desktop\face.png"
       inkscape:export-xdpi="17.963896"
       inkscape:export-ydpi="17.963896" />
    <path
       id="path3011"
       style="fill:#999999;fill-rule:evenodd;fill-opacity:1"
       d="m 586.51401,233.88712 c -11.26709,4.09986 -18.387,14.67432 -17.57821,26.24685 l 0.27103,4.46554 -4.50856,-0.54636 c -16.40375,-2.0951 -30.7382,-9.2021 -42.90873,-21.14462 l -5.94974,-5.92393 -1.53154,4.37519 c -3.24375,9.75277 -1.17016,20.0519 5.58838,26.97821 3.60512,3.82883 2.79203,4.37519 -3.42444,2.0951 -2.16394,-0.72705 -4.05684,-1.27341 -4.23753,-1.00238 -0.6281,0.64101 1.53153,8.93108 3.24375,12.21355 2.34462,4.56018 7.11991,9.02141 12.35121,11.66718 l 4.41822,2.0951 -5.227,0.0903 c -5.04632,0 -5.22701,0.0904 -4.68495,2.00907 1.80257,5.92393 8.92247,12.21354 16.85547,14.94965 l 5.58837,1.91011 -4.86563,2.9168 c -7.21025,4.19881 -15.6853,6.56494 -24.16036,6.74563 -4.06114,0.086 -7.39523,0.45171 -7.39523,0.72704 0,0.90774 11.00036,6.00998 17.39752,8.01904 19.20009,5.92394 42.0096,3.36851 59.1361,-6.74563 12.17052,-7.19734 24.33674,-21.51029 30.01976,-35.36722 3.06737,-7.38233 6.13043,-20.86928 6.13043,-27.33528 0,-4.19451 0.27103,-4.74087 5.31735,-9.75277 2.97702,-2.91679 5.76906,-6.10462 6.31112,-7.01665 0.90343,-1.73373 0.80878,-1.73373 -3.78581,-0.18499 -7.66197,2.73611 -8.74609,2.37043 -4.95598,-1.72943 2.79204,-2.91679 6.13044,-8.20402 6.13044,-9.75277 0,-0.27102 -1.35085,0.18069 -2.88668,1.00238 -1.62188,0.91204 -5.227,2.2801 -7.933,3.09749 l -4.86563,1.55304 -4.41821,-3.01144 c -2.43497,-1.63909 -5.8551,-3.46316 -7.66197,-4.00952 -4.5989,-1.27341 -11.63276,-1.09272 -15.77995,0.36568 z m -17.92668,179.46897 c -71.2765,0 -129.06175,-57.78095 -129.06175,-129.06176 0,-71.2808 57.78525,-129.06175 129.06175,-129.06175 71.27651,0 129.06176,57.78095 129.06176,129.06175 0,71.28081 -57.78525,129.06176 -129.06176,129.06176 z"
       inkscape:connector-curvature="0"
       inkscape:export-filename="C:\Users\MED\Desktop\tweet.png"
       inkscape:export-xdpi="16.736172"
       inkscape:export-ydpi="16.736172" />
    <path
       id="path3021"
       style="fill:#999999;fill-rule:evenodd;fill-opacity:1"
       d="m 672.05897,710.00888 v -38.46573 c 0,-20.60899 -11.0024,-30.19915 -25.67009,-30.19915 -11.83662,0 -17.14077,6.51277 -20.09664,11.08123 v -9.50476 h -22.3004 c 0.29559,6.296 0,67.08841 0,67.08841 h 22.3004 v -37.46731 c 0,-2.00013 0.14451,-4.00356 0.73569,-5.43551 1.6093,-4.00685 5.27787,-8.15492 11.43593,-8.15492 8.07281,0 11.298,6.15149 11.298,15.1669 v 35.89412 h 22.29711 z m -91.55973,-76.24504 c 7.77394,0 12.61828,-5.15636 12.61828,-11.59687 -0.14451,-6.57845 -4.84434,-11.58701 -12.47049,-11.58701 -7.62615,0 -12.615,5.00527 -12.615,11.58701 0,6.44051 4.84106,11.59687 12.32598,11.59687 h 0.14123 z m 36.26196,128.3439 c -54.41429,0 -98.52902,-44.11473 -98.52902,-98.52902 0,-54.41758 44.11473,-98.52902 98.52902,-98.52902 54.4143,0 98.52902,44.11144 98.52902,98.52902 0,54.41429 -44.11472,98.52902 -98.52902,98.52902 z m -25.11176,-52.09886 v -67.08841 h -22.29712 v 67.08841 h 22.29712 z"
       inkscape:connector-curvature="0"
       inkscape:export-filename="C:\Users\MED\Desktop\in.png"
       inkscape:export-xdpi="21.922474"
       inkscape:export-ydpi="21.922474" />
    <path
       id="path3031"
       style="fill:#999999;fill-rule:evenodd;fill-opacity:1"
       d="m 860.55735,437.3156 v -0.0173 c 1.44435,0 2.89158,0.0288 4.33881,-0.006 1.85867,-0.0489 3.37208,-1.64 3.37208,-3.50155 0,-2.77074 0,-5.54436 0,-8.3151 0,-1.98814 -1.57383,-3.56773 -3.55622,-3.5706 -2.76498,0 -5.52997,-0.003 -8.29496,0 -1.97951,0.003 -3.55621,1.58821 -3.55621,3.57635 -0.003,2.74773 -0.0115,5.49545 0.009,8.24318 0.003,0.41143 0.0806,0.83726 0.21003,1.22568 0.49776,1.46162 1.83853,2.3593 3.47854,2.36794 1.33214,0 2.66716,-0.003 3.9993,-0.003 z m -26.6745,3.56485 c -9.73644,-0.006 -17.65161,7.82885 -17.78683,17.51925 -0.14099,9.95511 7.82597,17.8415 17.37827,18.04579 9.93784,0.21291 17.97673,-7.72816 18.18677,-17.38691 0.21579,-9.9551 -7.81735,-18.18389 -17.77821,-18.17813 z m -34.39402,9.49187 v 0.23593 c 0,12.99055 -0.003,25.9811 0,38.97164 0,1.8673 1.61699,3.47566 3.48716,3.47566 20.60074,0.003 41.1986,0.003 61.79933,0 1.88744,0 3.4958,-1.6026 3.4958,-3.48717 0.003,-12.97328 0,-25.95232 0,-38.92273 v -0.27045 h -8.3784 c 1.18253,3.77776 1.54505,7.62745 1.08182,11.54907 -0.46322,3.92162 -1.72919,7.56991 -3.78639,10.94198 -2.05719,3.37208 -4.73011,6.17159 -7.99573,8.39566 -8.47047,5.77166 -19.62537,6.27805 -28.61661,1.23145 -4.54309,-2.54632 -8.11082,-6.09966 -10.60247,-10.68304 -3.70871,-6.82759 -4.30141,-13.99757 -2.12625,-21.438 -2.78513,0 -5.55299,0 -8.35826,0 z m 69.51022,52.18949 c 0.45747,-0.0748 0.91495,-0.14098 1.36667,-0.23881 3.58499,-0.76246 6.51397,-3.75186 7.21601,-7.35699 0.0719,-0.39418 0.12947,-0.78548 0.19277,-1.17678 v -70.23815 c -0.0604,-0.38266 -0.11509,-0.77108 -0.18702,-1.15375 -0.77109,-3.93313 -4.01656,-6.98584 -7.99861,-7.5325 -0.16687,-0.0202 -0.32512,-0.0575 -0.48912,-0.0863 h -70.43092 c -0.42295,0.0777 -0.85165,0.13523 -1.26884,0.23017 -3.88998,0.88618 -6.76717,4.01657 -7.32247,7.95833 -0.023,0.164 -0.0576,0.328 -0.0834,0.492 v 70.42805 c 0.0806,0.44309 0.14386,0.89481 0.24456,1.33789 0.86028,3.80366 4.10576,6.75279 7.96984,7.25054 0.18414,0.023 0.37403,0.0604 0.56105,0.0863 h 70.22952 z m -35.1162,42.42428 c -47.66941,0 -86.31593,-38.64364 -86.31593,-86.31593 0,-47.67229 38.64652,-86.31593 86.31593,-86.31593 47.66941,0 86.31593,38.64364 86.31593,86.31593 0,47.67229 -38.64652,86.31593 -86.31593,86.31593 z"
       inkscape:connector-curvature="0"
       inkscape:export-filename="C:\Users\MED\Desktop\insta.png"
       inkscape:export-xdpi="25.024343"
       inkscape:export-ydpi="25.024343" />
  </g>
</svg>
